<?xml version="1.0" standalone="no"?>
<!DOCTYPE svg PUBLIC "-//W3C//DTD SVG 20010904//EN"
 "http://www.w3.org/TR/2001/REC-SVG-20010904/DTD/svg10.dtd">
<svg version="1.0" xmlns="http://www.w3.org/2000/svg"
 width="1280.000000pt" height="1280.000000pt" viewBox="0 0 1280.000000 1280.000000"
 preserveAspectRatio="xMidYMid meet">
<metadata>
Created by potrace 1.15, written by Peter Selinger 2001-2017
</metadata>
<g transform="translate(0.000000,1280.000000) scale(0.100000,-0.100000)"
fill="#000000" stroke="none">
<path d="M5810 12420 c-308 -20 -667 -93 -990 -200 -446 -148 -851 -377 -1195
-676 -624 -542 -949 -1183 -1062 -2094 -31 -253 -23 -1016 13 -1239 l6 -35
-41 37 c-23 20 -43 37 -45 37 -2 0 -27 4 -55 10 -60 11 -129 0 -206 -35 -116
-52 -181 -149 -212 -316 -14 -75 -17 -151 -18 -379 0 -460 40 -682 171 -943
51 -102 82 -150 174 -267 37 -47 101 -133 143 -191 95 -132 169 -207 244 -246
109 -58 198 -55 294 9 34 23 68 38 80 36 30 -4 60 -85 118 -322 83 -336 148
-530 254 -758 25 -53 73 -179 107 -280 145 -430 310 -781 580 -1228 167 -277
220 -370 220 -388 0 -5 -32 -46 -72 -91 -151 -174 -421 -369 -703 -506 -93
-46 -346 -154 -562 -239 -555 -220 -739 -303 -967 -435 -301 -174 -575 -418
-736 -656 -63 -94 -171 -310 -203 -410 -46 -143 -78 -319 -84 -472 l-6 -143
5871 0 5872 0 0 1134 c0 895 -3 1136 -12 1144 -25 20 -255 131 -373 180 -355
146 -738 245 -1480 382 -732 135 -1145 240 -1636 415 -508 182 -893 379 -1159
593 -30 24 -57 48 -58 53 -2 5 23 55 56 112 172 294 347 712 532 1267 392
1174 459 1465 448 1933 -5 168 -12 241 -43 437 -33 210 -37 255 -37 420 0 120
6 236 18 330 28 225 25 486 -9 730 -157 1114 -307 1619 -620 2092 -305 460
-801 836 -1365 1031 -400 140 -815 195 -1252 167z"/>
</g>
</svg>
